<svg width="585" height="177" viewBox="0 0 585 177" fill="none" xmlns="http://www.w3.org/2000/svg">
<path d="M271.088 142.648C267.824 143.032 266 141.208 266 138.04V71.8C266 68.728 267.728 67 270.8 67H276.464C279.536 67 281.264 68.728 281.264 71.8V124.696C291.728 122.2 303.248 109.432 309.296 96.856C310.544 94.36 312.272 93.208 314.96 93.208H320.72C324.272 93.208 325.904 95.608 324.368 99.256C313.808 123.256 295.856 139.384 271.088 142.648Z" fill="#EDECE5" fill-opacity="0.98"/>
<path d="M89.736 125.184C79.656 125.184 73.512 117.696 73.512 108.576C73.512 97.056 82.536 90.816 103.848 88.512C103.464 84.096 101.16 81.504 95.592 81.504C92.424 81.504 89.256 82.464 85.608 84.096C82.728 85.44 80.52 84.768 79.08 82.08L77.544 79.296C76.104 76.608 76.776 74.208 79.464 72.768C85.512 69.792 91.944 67.872 98.856 67.872C112.968 67.872 120.936 75.744 120.936 92.832V119.04C120.936 122.112 119.208 123.84 116.136 123.84H111.336C108.456 123.84 106.824 122.976 106.44 121.152L105.864 118.368H105.384C100.872 122.4 95.784 125.184 89.736 125.184ZM89.736 107.232C89.736 110.4 92.04 111.936 95.592 111.936C99.048 111.936 101.352 110.304 103.848 107.616V98.88C93.192 100.224 89.736 103.392 89.736 107.232ZM153.715 146.784C141.139 146.784 130.867 142.848 130.867 133.056C130.867 128.544 133.459 124.896 138.547 122.304V121.824C135.667 119.904 133.555 117.024 133.555 112.416C133.555 108.576 136.051 104.736 139.699 102.24V101.856C135.763 99.168 132.211 94.08 132.211 87.648C132.211 74.4 143.251 67.872 155.059 67.872C158.227 67.872 161.203 68.352 163.699 69.216H178.963C182.035 69.216 183.763 70.944 183.763 74.016V76.8C183.763 79.872 182.323 81.6 179.635 81.6H175.411C176.179 83.136 176.851 85.632 176.851 88.224C176.851 100.992 167.155 106.56 155.059 106.56C153.235 106.56 151.027 106.272 148.627 105.6C147.475 106.752 146.899 107.52 146.899 109.44C146.899 111.936 149.107 113.088 154.963 113.088H163.603C177.043 113.088 184.723 117.216 184.723 127.104C184.723 138.624 172.723 146.784 153.715 146.784ZM144.883 130.368C144.883 134.208 149.491 136.128 156.403 136.128C163.411 136.128 168.307 133.536 168.307 130.08C168.307 126.816 165.427 126.144 160.339 126.144H155.155C151.219 126.144 149.107 125.952 147.379 125.472C145.651 127.008 144.883 128.544 144.883 130.368ZM148.147 87.648C148.147 93.408 151.123 96.288 155.059 96.288C159.091 96.288 162.067 93.408 162.067 87.648C162.067 82.176 159.091 79.296 155.059 79.296C151.123 79.296 148.147 82.176 148.147 87.648Z" fill="#EDECE5" fill-opacity="0.98"/>
<path fill-rule="evenodd" clip-rule="evenodd" d="M532.8 105.072C529.728 105.072 528 103.344 528 100.272V94.8C528 91.728 529.728 90 532.8 90H567.552C570.624 90 584.5 93.428 584.5 96.5C584.5 99.572 570.624 105.072 567.552 105.072H532.8ZM553.662 91.6968L555.264 90.5L558.777 95.2026L562.708 91.946L563.984 93.4862L559.975 96.8071L563.681 101.77L562.079 102.967L553.662 91.6968ZM564.662 91.6968L566.264 90.5L569.777 95.2026L573.708 91.946L574.984 93.4862L570.975 96.8071L574.681 101.77L573.079 102.967L564.662 91.6968Z" fill="#EDECE5" fill-opacity="0.98"/>
<path d="M426.872 140.46C423.896 140.46 422.168 138.828 421.976 135.852L420.536 115.692H399.8C396.728 115.692 395 113.964 395 110.892V105.42C395 102.348 396.728 100.62 399.8 100.62H419.48L418.616 87.7562H399.8C396.728 87.7562 395 86.0282 395 82.9562V77.8682C395 74.7962 396.728 73.0682 399.8 73.0682H417.56C421.82 73.0682 419.652 73.0682 422.82 73.0682H426.82L430.82 73.0682C433.796 73.0682 435.992 73.0682 433.016 73.0682L454.52 73.0682C457.592 73.0682 459.32 74.7962 459.32 77.8682V82.9562C459.32 86.0282 457.592 87.7562 454.52 87.7562H433.976L434.84 100.62H454.52C457.592 100.62 459.32 102.348 459.32 105.42V110.892C459.32 113.964 457.592 115.692 454.52 115.692H435.992L437.336 135.468C437.528 138.732 435.896 140.46 432.728 140.46H426.872Z" fill="#EDECE5" fill-opacity="0.98"/>
<path fill-rule="evenodd" clip-rule="evenodd" d="M421.714 52.0418C423.43 51.7876 424.552 52.7 424.83 54.576L425.824 61.2913L425.827 56.9436C425.828 55.3861 426.804 54.5105 428.539 54.5115L429.895 54.5124C431.629 54.5134 432.605 55.3901 432.604 56.9477L432.601 61.1892L433.045 59.5406C433.35 58.4043 434.277 57.9682 435.62 58.3291L436.668 58.6111C438.011 58.972 438.594 59.8142 438.288 60.9505L436.541 67.4488C436.477 67.688 436.385 67.8962 436.267 68.0725C436.097 69.5056 434.821 70.3613 432.649 70.4706L418.852 71.1656C417.139 71.2518 415.934 70.8203 415.347 69.9431C415.199 69.7777 415.061 69.5864 414.934 69.3694L410.132 61.1776C409.292 59.7452 409.662 58.4459 411.159 57.5685L412.328 56.8831C413.825 56.0057 415.139 56.3179 415.979 57.7503L419.284 63.3883L418.126 55.5689C417.848 53.6928 418.657 52.4945 420.373 52.2404L421.714 52.0418Z" fill="#EDECE5" fill-opacity="0.98"/>
<path fill-rule="evenodd" clip-rule="evenodd" d="M189 100.385C190.021 84.0305 202.26 74 214.851 74C230.595 74 238.275 85.424 238.275 100.304V100.304C238.275 100.388 238.275 100.471 238.275 100.553C237.882 104.369 236.795 106.436 234.807 107.496C234.284 107.63 233.71 107.696 233.091 107.696H213.053C210.684 107.638 208.511 107.618 206.525 107.599C194.903 107.489 189.681 107.439 189 100.385ZM223.779 96.464H205.155C206.307 90.032 210.435 87.056 215.139 87.056C221.379 87.056 223.779 91.088 223.779 96.464Z" fill="#EDECE5" fill-opacity="0.98"/>
<path d="M231.84 140.385C216.096 140.385 204 129.825 204 111.681C223.152 111.681 220.8 111.355 220.512 111.681C220.8 111.355 220.512 115.247 220.512 116.769C220.512 117.825 220.512 111.681 220.512 111.681C220.512 111.681 220.512 111.681 220.512 116.769C220.512 115.713 227.232 127.329 234.144 127.329C236.64 127.329 239.04 126.849 241.44 125.889C244.32 124.833 246.432 125.313 247.872 128.001L249.024 130.017C250.56 132.705 249.984 135.201 247.008 136.737C242.208 139.137 236.64 140.385 231.84 140.385ZM220.512 111.681C220.8 111.355 221.028 110.327 220.512 111.681V111.681Z" fill="#EDECE5" fill-opacity="0.98"/>
<path d="M56.7972 42.4988C57.2972 45.9988 61.2972 55.9988 60.7972 61.9988C57.9203 64.6983 45.2971 54.9988 43.2971 55.4988C39.797 57.9988 28.2971 67.4988 28.7971 65.9988C22.7971 56.4988 24.2971 59.4988 21.2971 53.9988C20.2619 53.1505 5.84997 57.9704 3.29718 57.9503C1.57729 57.9368 0.247389 57.5419 0.297049 55.9988C0.371327 53.6906 0.926621 52.4081 1.79706 51.1942C3.60179 48.6773 9.47907 36.5553 9.79706 35.9988C11.7971 32.4988 13.3215 29.7117 17.7971 26.9988C19.7903 25.7906 22.2971 23.9988 24.7972 23.4988C26.7971 23.0988 27.2971 22.9988 29.7971 22.4988C29.7971 20.4988 30.2972 18.4988 30.7971 17.9988C31.7971 16.9985 32.0962 16.7949 32.7972 16.4988C34.2545 15.8831 35.7972 15.9988 38.2971 16.4988C39.4595 16.9825 40.1902 17.6912 40.6597 18.4988C41.7119 20.309 41.4513 22.6158 41.7971 23.9988C43.154 25.4549 45.9364 25.3374 47.7971 26.9988C52.6103 31.2966 56.9472 37.8378 56.7972 42.4988ZM41.7971 49.4988C45.9999 47.5 46 49.4988 52.5 52.4988C52 47.9988 50 39.5 48.5 37C44 31 41.7972 30.4988 37.7972 27.4988C35.0964 24.378 37.2972 23.4988 35.7972 20.9988C33.2104 20.9156 35.4568 26.8965 32.7972 26.9988C26.9623 27.2232 22.2153 30.9734 17.7971 35.9988C12.7971 44.9988 11.2971 48.6942 9.79706 51.1942C9.75843 52.3945 22.6949 45.3463 24.7972 49.4988C26.2972 49.9988 29.2971 55.9503 30.7971 57.9503C36.7971 51.9503 35.7972 52.4988 41.7971 49.4988Z" fill="#AE955E" fill-opacity="0.98"/>
<path fill-rule="evenodd" clip-rule="evenodd" d="M34.7025 59.0034C34.4559 59.0011 34.2084 59 33.96 59H28.4669C29.2013 60.8908 29.9005 62.6123 30.4603 63.3588C32.3086 61.5105 33.635 60.1367 34.7025 59.0034ZM22.9272 59H13.8C10.728 59 9 60.728 9 63.8V125.72C9 128.792 10.728 130.52 13.8 130.52H35.976C51.528 130.52 63.912 123.992 63.912 109.4C63.912 99.896 58.44 94.52 51.24 92.6V92.216C57 90.008 60.552 83.096 60.552 76.76C60.552 65.4359 52.5173 60.7094 41.4052 59.4013C40.5048 60.0944 39.4684 60.9045 38.386 61.7505L38.3859 61.7506C33.8977 65.2588 28.618 69.3855 28.9602 68.3588C26.4053 64.3135 25.2103 62.5347 24.4487 61.4011L24.4486 61.401C23.8199 60.4651 23.4865 59.9689 22.9272 59ZM34.728 117.368H26.184V99.992H34.728C43.08 99.992 47.208 102.392 47.208 108.248C47.208 114.392 42.984 117.368 34.728 117.368ZM33.288 87.416H26.184V72.152H33.288C40.488 72.152 43.848 74.264 43.848 79.352C43.848 84.248 40.584 87.416 33.288 87.416Z" fill="#EDECE5" fill-opacity="0.98"/>
<path d="M331.664 140.824C328.496 142.744 326 141.112 326 137.368V129.688C326 127.096 327.056 125.368 329.264 123.928C346.16 113.368 357.104 100.6 364.304 82.456H334.352C331.28 82.456 329.552 80.728 329.552 77.656V71.8C329.552 68.728 331.28 67 334.352 67H379.376C382.736 67 384.464 69.016 383.6 72.28C380.624 84.952 375.248 95.8 369.392 104.824C373.904 111.448 380.432 117.688 385.904 122.392C387.824 124.024 388.592 125.752 388.592 128.248V136.024C388.592 140.056 385.904 141.496 382.64 139C374.288 132.376 367.664 125.56 360.848 116.44C354.224 124.6 342.608 134.584 331.664 140.824Z" fill="#EDECE5" fill-opacity="0.98"/>
<path d="M470.032 139.712C467.44 139.712 466 138.272 466 135.584V130.592C466 128 467.44 126.56 470.032 126.56H497.776L499.888 92.768H472.816C470.224 92.768 468.784 91.328 468.784 88.736V84.032C468.784 81.44 470.224 80 472.816 80H510.064C512.752 80 514.192 81.44 514 84.224L511.216 126.56H517.168C519.856 126.56 521.296 128 521.296 130.592V135.584C521.296 138.272 519.856 139.712 517.168 139.712H470.032Z" fill="#EDECE5" fill-opacity="0.98"/>
</svg>
